<svg xmlns="http://www.w3.org/2000/svg" width="254.771" height="399.081" viewBox="0 0 254.771 399.081">
  <g id="humaaans_standing-9" data-name="humaaans/standing-9" transform="translate(-53 -20)">
    <g id="A-Human_Standing" data-name="A-Human/Standing" transform="translate(53 20)">
      <g id="Head_Front_Airy" data-name="Head/Front/Airy" transform="translate(0)">
        <g id="Head" transform="translate(113.365 35.023)">
          <path id="Trazado_2" data-name="Trazado 2" d="M7.615,31.788C3.368,26.8.494,20.694.974,13.848,2.358-5.876,29.814-1.537,35.155,8.418s4.706,35.207-2.2,36.986c-2.753.709-8.617-1.029-14.585-4.626l3.746,26.5H0Z" transform="translate(0 0)" fill="#b28b67" fill-rule="evenodd"/>
        </g>
        <path id="hair" d="M66.912,24.968C64,24.49,56.147,24.161,54.7,24.162c-.925,0-1.928.211-2.476-.638-.449-.7-.284-1.872-.418-2.679-.155-.938-.376-1.863-.6-2.787a28.337,28.337,0,0,0-2.942-7.473A22.971,22.971,0,0,0,37.376.726,34.965,34.965,0,0,0,20.844-1.548C14.911-1.067,9.541.892,3.939,2.735a35.431,35.431,0,0,1-16.513,1.59C-18.2,3.461-22.45.412-27.194-2.482c-4.857-2.963-10.408-4.9-16.151-4.455A31.1,31.1,0,0,0-58.078-1.351c-4.147,2.766-7.569,6.094-9.5,10.778C-69.657,14.466-69.655,20-66.237,24.45c4.954,6.455,14.15,8.124,21.8,7.958a41.651,41.651,0,0,0,12.95-2.373c5.572-1.96,10.387-5.282,15.6-7.977a40.594,40.594,0,0,1,7.625-3.052c2.572-.726,5.105-1.059,7.434.494a35.106,35.106,0,0,0,7.489,4.287,24.154,24.154,0,0,0,8.448,1.517c5.6-.043,11.129-1.79,16.572-2.959,4.439-.954,9.188-1.9,13.713-.987,1.888.383,4.646,1.172,5.328,3.135-11.479,2.08-15.987,16.277-12.751,26.7,1.747,5.625,12.245,12.2,16.327,9.243,2.586-1.873,1.016-4.333,0-5.956-1.946-3.109-2.612-7.1.989-9.268,3.106-1.867,6.371,2.567,6.433,2.562.854-.067,8.229-4.239,13.311-10.326,5.013.3,5.774-3.008,4.577-5.712S70.94,25.629,66.912,24.968Z" transform="translate(69 7)" fill="#191847" fill-rule="evenodd"/>
      </g>
      <g id="Bottom_Standing_Sprint" data-name="Bottom/Standing/Sprint" transform="translate(11.06 153.193)">
        <path id="Leg" d="M95.9,0C78.273,14.371,84.978,140.372,83.8,141.958q-.785,1.058-83.8,18l2.389,9.752q97.109-4.819,102.769-12.028,8.1-10.32,20.031-115.431Z" transform="matrix(0.574, -0.819, 0.819, 0.574, 29.46, 104.167)" fill="#b28b67" fill-rule="evenodd"/>
        <path id="Pant" d="M0,156.128l4.208,15.706c48.258,5.542,80.072-1.317,91.27-11.97q11.2-10.652,20.082-115.117L84.227,0C42.268,31.655,67.279,135.282,66.207,137.653S39.684,141.9,0,156.128Z" transform="matrix(0.574, -0.819, 0.819, 0.574, 35.059, 94.661)" fill="#2f3676" fill-rule="evenodd"/>
        <g id="Accessories_Shoe_Flat-Sneaker" data-name="Accessories/Shoe/Flat-Sneaker" transform="matrix(0.94, 0.342, -0.342, 0.94, 157.505, 188.341)">
          <path id="shoe" d="M1.547,5.594A19.79,19.79,0,0,0,0,11.773a46.246,46.246,0,0,0,.831,7.276H52.814q2.026-6.7-2.339-7.233t-7.253-.965L19.06.08a.922.922,0,0,0-1.217.467l-.01.024L16.28,4.338A16.574,16.574,0,0,1,9.711,6.224a14.875,14.875,0,0,1-5.67-1.658h0A1.843,1.843,0,0,0,1.6,5.473Q1.57,5.533,1.547,5.594Z" transform="translate(0)" fill="#e4e4e4" fill-rule="evenodd"/>
        </g>
        <path id="Leg-2" data-name="Leg" d="M121.963,0,74.27,114.5,27.4,211.292H38.455L159.45,0Z" transform="translate(-25.188 25.61)" fill="#997659" fill-rule="evenodd"/>
        <g id="Accessories_Shoe_Flat-Sneaker-2" data-name="Accessories/Shoe/Flat-Sneaker" transform="translate(0 226.839)">
          <path id="shoe-2" data-name="shoe" d="M2.547,24.926A19.79,19.79,0,0,0,1,31.105a46.246,46.246,0,0,0,.831,7.276H53.814q2.026-6.7-2.339-7.233t-7.253-.965L20.06,19.412a.922.922,0,0,0-1.217.467l-.01.024L17.28,23.67a16.574,16.574,0,0,1-6.568,1.886A14.875,14.875,0,0,1,5.041,23.9h0A1.843,1.843,0,0,0,2.6,24.8Q2.57,24.865,2.547,24.926Z" transform="translate(-1 -19.332)" fill="#e4e4e4" fill-rule="evenodd"/>
        </g>
        <path id="Pant-2" data-name="Pant" d="M31.989,191.184l24.574,4.608C75.562,167.858,155.079,53.32,163.8,0H109.091C79.976,38.545,50.1,162.788,31.989,191.184Z" transform="translate(-25.547 25.61)" fill="#5c63ab" fill-rule="evenodd"/>
      </g>
      <g id="Body_Jacket-2" data-name="Body/Jacket-2" transform="translate(10.138 82.028)">
        <path id="Skin" d="M182.646,75.219l33.4-14.666A79.107,79.107,0,0,1,232.991,47.26c1.629-.519,4.412-.675,1.442,3.662s-5.9,9.033-4.712,10.553,4.624-.158,5.982,2.314q1.359,2.472-17.382,5.914L193.31,88.88ZM47.63,79.258l18.886,3.747q-28.49,53.1-30.558,56.281c-3.1,4.779-.208,13.536.861,18.148-6.705,1.561-4.061-8.531-12.546-6.424-7.745,1.924-14.311,6.859-21.533.2-.888-.818-1.538-3.377,1.489-4.689,7.542-3.269,18.684-9.39,20.491-11.766Q28.417,129.9,47.63,79.258Z" transform="translate(-2 -3.682)" fill="#b28b67" fill-rule="evenodd"/>
        <path id="Coat-Back" d="M0,2.056,7.82,0c18.76,15.262,29.343,54.946,41.335,59.272,11.336,4.09,26.356-2.142,44.139-10.338L100.015,61c-15.1,19.507-49.306,37.864-64.473,30.419C11.294,79.522,1.629,30.282,0,2.056Z" transform="translate(116.027 2.866) rotate(5)" fill="#db2721" fill-rule="evenodd"/>
        <path id="Shirt" d="M90,105.07h70.518c3.223,0,2.616-4.653,2.149-7-5.375-27.1-26.361-56.307-26.361-94.879L115.965,0C99.141,27.059,93.322,60.373,90,105.07Z" transform="translate(-8.893 0)" fill="#dde3e9" fill-rule="evenodd"/>
        <path id="Coat-Front" d="M78.031,77.635q-21.563,38.9-36.25,56.007L27,130.747Q41.282,42.172,109.718,0h8.054q27.391,93.37,15.1,124.425H69.4C70.4,109.275,73.621,93.255,78.031,77.635Z" transform="translate(-3.958 0)" fill="#ff4133" fill-rule="evenodd"/>
      </g>
    </g>
  </g>
</svg>
