<svg id="Grupo_11" data-name="Grupo 11" xmlns="http://www.w3.org/2000/svg" width="519.898" height="358.291" viewBox="0 0 519.898 358.291">
  <g id="Grupo_8" data-name="Grupo 8" transform="translate(300.172 111.72)" opacity="0.3">
    <rect id="Rectángulo_48" data-name="Rectángulo 48" width="62.126" height="17.451" rx="7.43" transform="translate(0 87.265)" fill="#f2f2f2"/>
    <rect id="Rectángulo_49" data-name="Rectángulo 49" width="62.126" height="17.451" rx="7.43" transform="translate(65.016 104.717)" fill="#f2f2f2"/>
    <rect id="Rectángulo_50" data-name="Rectángulo 50" width="62.126" height="17.451" rx="7.43" transform="translate(130.036 122.172)" fill="#f2f2f2"/>
    <rect id="Rectángulo_51" data-name="Rectángulo 51" width="62.126" height="17.451" rx="7.43" transform="translate(0 61.084)" fill="#f2f2f2"/>
    <rect id="Rectángulo_52" data-name="Rectángulo 52" width="62.126" height="17.451" rx="7.43" transform="translate(65.016 78.54)" fill="#f2f2f2"/>
    <rect id="Rectángulo_53" data-name="Rectángulo 53" width="62.126" height="17.451" rx="7.43" transform="translate(130.036 95.991)" fill="#f2f2f2"/>
    <rect id="Rectángulo_54" data-name="Rectángulo 54" width="62.126" height="17.451" rx="7.43" transform="translate(0 26.181)" fill="#f2f2f2"/>
    <rect id="Rectángulo_55" data-name="Rectángulo 55" width="62.126" height="17.451" rx="7.43" transform="translate(65.016 43.633)" fill="#f2f2f2"/>
    <rect id="Rectángulo_56" data-name="Rectángulo 56" width="62.126" height="17.451" rx="7.43" transform="translate(130.036 61.084)" fill="#f2f2f2"/>
    <rect id="Rectángulo_57" data-name="Rectángulo 57" width="62.126" height="17.451" rx="7.43" fill="#f2f2f2"/>
    <rect id="Rectángulo_58" data-name="Rectángulo 58" width="62.126" height="17.451" rx="7.43" transform="translate(65.016 17.451)" fill="#f2f2f2"/>
    <rect id="Rectángulo_59" data-name="Rectángulo 59" width="62.126" height="17.451" rx="7.43" transform="translate(130.036 34.907)" fill="#f2f2f2"/>
    <rect id="Rectángulo_60" data-name="Rectángulo 60" width="62.126" height="17.451" rx="7.43" transform="translate(0 87.265)" fill="#6c63ff" opacity="0.1"/>
    <rect id="Rectángulo_61" data-name="Rectángulo 61" width="62.126" height="17.451" rx="7.43" transform="translate(65.016 104.717)" fill="#6c63ff" opacity="0.1"/>
    <rect id="Rectángulo_62" data-name="Rectángulo 62" width="62.126" height="17.451" rx="7.43" transform="translate(130.036 122.172)" fill="#6c63ff" opacity="0.1"/>
    <rect id="Rectángulo_63" data-name="Rectángulo 63" width="62.126" height="17.451" rx="7.43" transform="translate(0 61.084)" fill="#6c63ff" opacity="0.1"/>
    <rect id="Rectángulo_64" data-name="Rectángulo 64" width="62.126" height="17.451" rx="7.43" transform="translate(65.016 78.54)" fill="#6c63ff" opacity="0.1"/>
    <rect id="Rectángulo_65" data-name="Rectángulo 65" width="62.126" height="17.451" rx="7.43" transform="translate(130.036 95.991)" fill="#6c63ff" opacity="0.1"/>
    <rect id="Rectángulo_66" data-name="Rectángulo 66" width="62.126" height="17.451" rx="7.43" transform="translate(0 26.181)" fill="#6c63ff" opacity="0.1"/>
    <rect id="Rectángulo_67" data-name="Rectángulo 67" width="62.126" height="17.451" rx="7.43" transform="translate(65.016 43.633)" fill="#6c63ff" opacity="0.1"/>
    <rect id="Rectángulo_68" data-name="Rectángulo 68" width="62.126" height="17.451" rx="7.43" transform="translate(130.036 61.084)" fill="#6c63ff" opacity="0.1"/>
    <rect id="Rectángulo_69" data-name="Rectángulo 69" width="62.126" height="17.451" rx="7.43" fill="#6c63ff" opacity="0.1"/>
    <rect id="Rectángulo_70" data-name="Rectángulo 70" width="62.126" height="17.451" rx="7.43" transform="translate(65.016 17.451)" fill="#6c63ff" opacity="0.1"/>
    <rect id="Rectángulo_71" data-name="Rectángulo 71" width="62.126" height="17.451" rx="7.43" transform="translate(130.036 34.907)" fill="#6c63ff" opacity="0.1"/>
  </g>
  <g id="Grupo_9" data-name="Grupo 9" transform="translate(56.856)" opacity="0.3">
    <rect id="Rectángulo_72" data-name="Rectángulo 72" width="62.126" height="17.451" rx="7.43" transform="translate(0 87.265)" fill="#f2f2f2"/>
    <rect id="Rectángulo_73" data-name="Rectángulo 73" width="62.126" height="17.451" rx="7.43" transform="translate(65.016 104.717)" fill="#f2f2f2"/>
    <rect id="Rectángulo_74" data-name="Rectángulo 74" width="62.126" height="17.451" rx="7.43" transform="translate(130.036 122.172)" fill="#f2f2f2"/>
    <rect id="Rectángulo_75" data-name="Rectángulo 75" width="62.126" height="17.451" rx="7.43" transform="translate(0 61.084)" fill="#f2f2f2"/>
    <rect id="Rectángulo_76" data-name="Rectángulo 76" width="62.126" height="17.451" rx="7.43" transform="translate(65.016 78.54)" fill="#f2f2f2"/>
    <rect id="Rectángulo_77" data-name="Rectángulo 77" width="62.126" height="17.451" rx="7.43" transform="translate(130.036 95.991)" fill="#f2f2f2"/>
    <rect id="Rectángulo_78" data-name="Rectángulo 78" width="62.126" height="17.451" rx="7.43" transform="translate(0 26.181)" fill="#f2f2f2"/>
    <rect id="Rectángulo_79" data-name="Rectángulo 79" width="62.126" height="17.451" rx="7.43" transform="translate(65.016 43.633)" fill="#f2f2f2"/>
    <rect id="Rectángulo_80" data-name="Rectángulo 80" width="62.126" height="17.451" rx="7.43" transform="translate(130.036 61.084)" fill="#f2f2f2"/>
    <rect id="Rectángulo_81" data-name="Rectángulo 81" width="62.126" height="17.451" rx="7.43" fill="#f2f2f2"/>
    <rect id="Rectángulo_82" data-name="Rectángulo 82" width="62.126" height="17.451" rx="7.43" transform="translate(65.016 17.451)" fill="#f2f2f2"/>
    <rect id="Rectángulo_83" data-name="Rectángulo 83" width="62.126" height="17.451" rx="7.43" transform="translate(130.036 34.907)" fill="#f2f2f2"/>
    <rect id="Rectángulo_84" data-name="Rectángulo 84" width="62.126" height="17.451" rx="7.43" transform="translate(0 87.265)" fill="#6c63ff" opacity="0.1"/>
    <rect id="Rectángulo_85" data-name="Rectángulo 85" width="62.126" height="17.451" rx="7.43" transform="translate(65.016 104.717)" fill="#6c63ff" opacity="0.1"/>
    <rect id="Rectángulo_86" data-name="Rectángulo 86" width="62.126" height="17.451" rx="7.43" transform="translate(130.036 122.172)" fill="#6c63ff" opacity="0.1"/>
    <rect id="Rectángulo_87" data-name="Rectángulo 87" width="62.126" height="17.451" rx="7.43" transform="translate(0 61.084)" fill="#6c63ff" opacity="0.1"/>
    <rect id="Rectángulo_88" data-name="Rectángulo 88" width="62.126" height="17.451" rx="7.43" transform="translate(65.016 78.54)" fill="#6c63ff" opacity="0.1"/>
    <rect id="Rectángulo_89" data-name="Rectángulo 89" width="62.126" height="17.451" rx="7.43" transform="translate(130.036 95.991)" fill="#6c63ff" opacity="0.1"/>
    <rect id="Rectángulo_90" data-name="Rectángulo 90" width="62.126" height="17.451" rx="7.43" transform="translate(0 26.181)" fill="#6c63ff" opacity="0.1"/>
    <rect id="Rectángulo_91" data-name="Rectángulo 91" width="62.126" height="17.451" rx="7.43" transform="translate(65.016 43.633)" fill="#6c63ff" opacity="0.1"/>
    <rect id="Rectángulo_92" data-name="Rectángulo 92" width="62.126" height="17.451" rx="7.43" transform="translate(130.036 61.084)" fill="#6c63ff" opacity="0.1"/>
    <rect id="Rectángulo_93" data-name="Rectángulo 93" width="62.126" height="17.451" rx="7.43" fill="#6c63ff" opacity="0.1"/>
    <rect id="Rectángulo_94" data-name="Rectángulo 94" width="62.126" height="17.451" rx="7.43" transform="translate(65.016 17.451)" fill="#6c63ff" opacity="0.1"/>
    <rect id="Rectángulo_95" data-name="Rectángulo 95" width="62.126" height="17.451" rx="7.43" transform="translate(130.036 34.907)" fill="#6c63ff" opacity="0.1"/>
  </g>
  <g id="Grupo_10" data-name="Grupo 10" transform="translate(38.154 127.501)" opacity="0.1">
    <path id="Trazado_5" data-name="Trazado 5" d="M297.25,561.5a33.154,33.154,0,0,1-.827,7.449c-.1.442-.219.914-.333,1.356-2.932,10.938-11.215,18.94-21.1,19.43-.328,0-.661.026-1,.026-10.455,0-19.285-8.39-22.2-19.906-.086-.309-.157-.614-.228-.923a33.151,33.151,0,0,1-.827-7.449c0-15.628,10.407-28.261,23.253-28.261S297.25,545.871,297.25,561.5Z" transform="translate(-194.922 -445.159)" fill="#3f3d56"/>
    <path id="Trazado_6" data-name="Trazado 6" d="M297.271,561.477a33.154,33.154,0,0,1-.827,7.449c-.1.442-.219.914-.333,1.356a9.058,9.058,0,0,1-1.041-.04,50.6,50.6,0,0,1-7.6-.967,49.859,49.859,0,0,1-6.781,1.44,51.2,51.2,0,0,1-5.313.442c-.6,0-1.2.031-1.8.031a52.165,52.165,0,0,1-6.368-.393,50.006,50.006,0,0,1-9.98-2.305,49.551,49.551,0,0,1-5.394,1.325c-.086-.309-.157-.614-.228-.923a33.152,33.152,0,0,1-.827-7.449c0-15.628,10.407-28.261,23.253-28.261S297.271,545.849,297.271,561.477Z" transform="translate(-194.943 -445.136)" opacity="0.1"/>
    <path id="Trazado_7" data-name="Trazado 7" d="M285.248,397.444a41.244,41.244,0,0,0-5.061-19.792l-27.349,7.9,24-13.115a48.1,48.1,0,0,0-35.509-18.807,44.483,44.483,0,0,0-3.683-4.535l-39.315,11.362,32.216-17.6a50.207,50.207,0,0,0-43.911-6.737c-14.93,4.7-26.358,16-30.472,30.141l33.651,35.993-36.554-24.517c-19.105,12.592-25.407,36.285-14.814,55.7s34.887,28.69,57.109,21.809a50.954,50.954,0,0,0,30.286.773,50.05,50.05,0,0,0,39.812-8.638c11.177-8.336,17.683-20.931,17.69-34.248,0-.976-.038-1.943-.1-2.906a41.049,41.049,0,0,0,2.005-12.779Z" transform="translate(-133.311 -333.797)" fill="#6c63ff"/>
    <path id="Trazado_8" data-name="Trazado 8" d="M284.409,483.612a135.385,135.385,0,0,0-43.764-.517c-16.419,2.526-33.2,8.077-49.267,4.018-9.424-2.385-17.583-7.9-26.779-10.951a54.445,54.445,0,0,0-27.649-1.55c-7.161,15.9-3.654,34.228,8.968,46.862s32.029,17.244,49.628,11.789a50.954,50.954,0,0,0,30.272.773,50.05,50.05,0,0,0,39.812-8.638c11.177-8.336,17.683-20.931,17.69-34.248,0-.976-.038-1.943-.1-2.906A40.933,40.933,0,0,0,284.409,483.612Z" transform="translate(-133.285 -411.819)" opacity="0.1"/>
  </g>
  <ellipse id="Elipse_6" data-name="Elipse 6" cx="259.949" cy="43.937" rx="259.949" ry="43.937" transform="translate(0 264.993)" fill="#6c63ff" opacity="0.1"/>
  <path id="Trazado_9" data-name="Trazado 9" d="M779.139,748.042a8.63,8.63,0,0,1,5.608-5.864,9.61,9.61,0,0,1,8.373,1.007l.371.252c7.951,5.537,3.232,15.694,0,15.923s-9.447.477-9.447.477S776.72,757.029,779.139,748.042Z" transform="translate(-433.801 -434.047)" fill="#192534"/>
  <path id="Trazado_10" data-name="Trazado 10" d="M856.826,710.339v1.846s-32.315,2.075-35.766,2.075H814.6s-.1.093-.252.26c-.266.278-.718.768-1.217,1.378a11.61,11.61,0,0,0-2.509,4.363,4.958,4.958,0,0,1-2.234,3.462l-6.458-1.612-6.23-6.924-.908-.813-2.585-2.292L790,710.118l.109-1.1v-.168a59.14,59.14,0,0,1,2.024-7.012.606.606,0,0,1,.067-.19c1.792-5,4.781-11.07,9.086-12.877.328-.137.67-.269,1.036-.389l.437-.141c8.259-2.57,23.866-1.55,23.866-1.55s11.919,3.232,12.917,4.619,12.294,12.806,12.294,12.806a18.09,18.09,0,0,1,2.728,2.345A7.712,7.712,0,0,1,856.826,710.339Z" transform="translate(-439.758 -403.245)" fill="#6c63ff"/>
  <ellipse id="Elipse_7" data-name="Elipse 7" cx="3.479" cy="5.078" rx="3.479" ry="5.078" transform="translate(345.779 312.172)" fill="#fff" opacity="0.1"/>
  <path id="Trazado_11" data-name="Trazado 11" d="M805.834,692.864s-2.851,4.063-5.864,9.273a.17.17,0,0,0,0,.04c-.8,1.387-1.621,2.848-2.4,4.345l-.033.071s-1.649-1.214-2.946-2.4a.606.606,0,0,1,.067-.19c1.792-5,4.781-11.07,9.086-12.876.328-.137.67-.269,1.036-.389Z" transform="translate(-442.167 -405.619)" opacity="0.1"/>
  <path id="Trazado_12" data-name="Trazado 12" d="M800.48,709.192s17.636,4.857,21.11,2.769c0,0,1.245-14.771-6.953-15.694,0,0-4.719-1.157-5.7-.442S800.48,709.192,800.48,709.192Z" transform="translate(-445.258 -408.328)" fill="#fff" opacity="0.1"/>
  <path id="Trazado_13" data-name="Trazado 13" d="M848.56,700.072s3.479,12.232,5.964,12.466,27.563-.234,26.575-1.85-11.923-12-11.923-12Z" transform="translate(-470.489 -410.059)" fill="#fff" opacity="0.1"/>
  <path id="Trazado_14" data-name="Trazado 14" d="M836.959,748.85s4.515-5.515,12.465.026,3.227,15.694,0,15.923-9.414.464-9.414.464S830.206,761.519,836.959,748.85Z" transform="translate(-463.156 -436.705)" fill="#192534"/>
  <path id="Trazado_15" data-name="Trazado 15" d="M920.454,749.478a6.912,6.912,0,0,0-3.949-3.92,7.7,7.7,0,0,0-5.779.043,14.147,14.147,0,0,0-2.509,1.418c-7.076,4.928-2.851,13.967,0,14.175,1.031.071,2.4.146,3.74.212a9.167,9.167,0,0,0,7.239-2.916,7.8,7.8,0,0,0,1.857-7.126,16.385,16.385,0,0,0-.6-1.885Z" transform="translate(-499.76 -435.928)" fill="#192534"/>
  <ellipse id="Elipse_8" data-name="Elipse 8" cx="3.479" cy="5.078" rx="3.479" ry="5.078" transform="translate(372.359 314.941)" fill="#fff" opacity="0.1"/>
  <path id="Trazado_16" data-name="Trazado 16" d="M864.234,742.007s-.475-6.694,7.2-3.926,2.733,5.771,2.733,5.771Z" transform="translate(-478.711 -431.681)" fill="#fff" opacity="0.1"/>
  <path id="Trazado_17" data-name="Trazado 17" d="M926.383,735.525v.923l-1.24.442-2.533-.442s-.542-3.78,1.535-4.857A8.228,8.228,0,0,1,926.383,735.525Z" transform="translate(-509.315 -428.431)" fill="#fff" opacity="0.1"/>
  <path id="Trazado_18" data-name="Trazado 18" d="M856.826,738.869v1.8s-32.315,2.075-35.766,2.075h-.029c-1.787-.883-3.574-1.276-5.075-.689a5.668,5.668,0,0,0-1.278.689c-.114.084-.223.172-.328.261a6.423,6.423,0,0,0-1.217,1.378c-2.224,3.343-1.749,8.518-1.749,8.518-6.458,1.846-13.164-3-13.164-3a29.474,29.474,0,0,0-3.393-7.065,6.215,6.215,0,0,0-2.585-2.292L790,738.6l.109-1.1,18.025,12.179s1.739-10.386,5.7-9.693a96.522,96.522,0,0,0,11.923.693Z" transform="translate(-439.758 -431.731)" opacity="0.1"/>
  <path id="Trazado_19" data-name="Trazado 19" d="M787.2,737.36s-1.492,3.462,0,3.7,4.843-2.65,9.191,9.463c0,0,6.705,4.857,13.164,3,0,0-.77-8.77,4.586-10.85s14.29,8.311,14.29,8.311v2.309l21.114-2.08s6.458-4.615,6.211-11.768l-31.793,1.846a96.6,96.6,0,0,1-11.923-.693c-3.973-.693-5.7,9.715-5.7,9.715Z" transform="translate(-437.939 -431.653)" fill="#6c63ff"/>
  <rect id="Rectángulo_96" data-name="Rectángulo 96" width="26.579" height="24.698" rx="12.349" transform="translate(246.552 242.583)" fill="#192534"/>
  <path id="Trazado_20" data-name="Trazado 20" d="M568.318,649a24.676,24.676,0,0,0,4.876-4.782,21.705,21.705,0,0,0,2.523-5.56q2.79-8.253,4.8-16.714c-7.314-1.038-12.774-7.039-19.926-8.8-.171-.044-5.641,30.5-6.04,33.286-.328,2.305-3.16,13.314.067,13.375,1.725.035,5.327-3.974,6.6-5.03Z" transform="translate(-315.436 -362.286)" fill="#3f3d56"/>
  <path id="Trazado_21" data-name="Trazado 21" d="M568.318,649a24.676,24.676,0,0,0,4.876-4.782,21.705,21.705,0,0,0,2.523-5.56q2.79-8.253,4.8-16.714c-7.314-1.038-12.774-7.039-19.926-8.8-.171-.044-5.641,30.5-6.04,33.286-.328,2.305-3.16,13.314.067,13.375,1.725.035,5.327-3.974,6.6-5.03Z" transform="translate(-315.436 -362.286)" opacity="0.1"/>
  <path id="Trazado_22" data-name="Trazado 22" d="M357.531,514.15a5.614,5.614,0,0,0-2.329.609c-.95.618-1.193,1.766-1.644,2.764a6.941,6.941,0,0,1-2.875,3.091c-1.088.618-2.414,1.033-3.065,2.049a4.251,4.251,0,0,0-.508,2.208,39.373,39.373,0,0,0,.328,6.774,9.54,9.54,0,0,1,.1,3.383,9.307,9.307,0,0,1-2,3.466c-2,2.566-3.949,5.383-4.111,8.545-.081,1.59.3,3.219-.133,4.76-.765,2.733-3.883,4.517-4.491,7.282a12.3,12.3,0,0,1-.475,2.446c-.6,1.325-2.248,2.049-2.671,3.413-.318,1.024.147,2.106.181,3.171a8.089,8.089,0,0,1-1.678,4.341l-4.947,7.816c-1.606,2.535-3.251,5.184-3.521,8.116-.242,2.6.627,5.175,1.583,7.631,2.124,5.453,5.28,11.229,11.1,13.327,3.426,1.236,7.242.971,10.906.689a83.381,83.381,0,0,0,14.913-2.053c2.4-.631,4.752-1.475,7.176-1.925a41.873,41.873,0,0,0,4.833-.923,9.472,9.472,0,0,0,6.482-7.286c2.072.76,3.992-1.766,3.7-3.815s-1.777-3.784-2.376-5.771c-.855-2.742,0-5.719,1.426-8.244s3.393-4.76,4.947-7.22a26.319,26.319,0,0,0,3.555-8.9c.832-4.235.58-8.584.323-12.881l-.979-16.422c-.181-3.007-.385-6.112-1.811-8.832-1.563-2.963-4.415-5.136-7.261-7.109a122.275,122.275,0,0,0-13.187-8.116c-2.956-1.537-2.747-.941-5.1.883A13.579,13.579,0,0,1,357.531,514.15Z" transform="translate(-195.032 -304.496)" fill="#3f3d56"/>
  <path id="Trazado_23" data-name="Trazado 23" d="M463.069,610.059c-3.36,2.464-6.762,4.963-9.348,8.134a22.506,22.506,0,0,0-5.075,13.331,38.236,38.236,0,0,0,.508,6.743c.509,3.643,1.426,7.7,4.729,9.715,2.082,1.267,4.942,1.585,6.363,3.484a16.087,16.087,0,0,0,1.231,1.85,5.673,5.673,0,0,0,3.8,1.232,37.9,37.9,0,0,0,6.13-.177c2.324-.26,4.686-.733,6.986-.327,4.477.782,7.817,4.707,12.356,5.233,3.769.442,7.3-1.594,10.455-3.533,3.255-2,6.653-4.142,8.416-7.379,1.716-3.144,1.621-6.845,1.487-10.373a46.74,46.74,0,0,0-1.426-11.662,19.3,19.3,0,0,1-.8-3.029c-.337-2.649.95-5.255,1.9-7.789,1.478-3.855,2.124-8.606-.813-11.653a11.235,11.235,0,0,0-4.714-2.649c-7.722-2.579-16.248-1.6-24.17-.442C473.524,601.833,469,605.719,463.069,610.059Z" transform="translate(-260.623 -354.715)" fill="#3f3d56"/>
  <path id="Trazado_24" data-name="Trazado 24" d="M587.809,561.949a87.415,87.415,0,0,0-8.34,13.247,81.221,81.221,0,0,0-3.8,10.421c-3.051,9.8-6.078,19.809-12.171,28.292-.874,1.219-1.844,2.486-1.934,3.948a7.319,7.319,0,0,0,1.3,3.868,37.524,37.524,0,0,0,4.952,7.4,40.531,40.531,0,0,0,6.919,5.608c5.09,3.533,10.745,7.277,17.108,7.012a5.265,5.265,0,0,0,3.6-1.254,3.928,3.928,0,0,0,.846-3.352c-.475-3.634-3.422-6.491-6.092-9.185s-5.356-5.842-5.142-9.516c.166-3.034,2.3-5.621,4.353-7.988,2.343-2.711,4.69-5.418,6.9-8.222,9.557-12.121,16.457-25.9,21.927-40.047,2.3-5.97,4.4-12.241,3.683-18.546-5.227-1.192-15.682-5.175-20.1-1.064-2.676,2.491-4.567,6.182-6.653,9.119Z" transform="translate(-319.876 -321.865)" fill="#fbbebe"/>
  <path id="Trazado_25" data-name="Trazado 25" d="M675.451,461.815a72.965,72.965,0,0,0-7.718,17.045,8.624,8.624,0,0,0-.5,4.416c.366,1.563,1.511,2.848,2.376,4.226s1.473,3.122.689,4.544c-3.707.269-7.38-.671-10.964-1.6L648.1,487.528a6.006,6.006,0,0,1-2.542-1.1c-1.3-1.144-1.2-3.065-.951-4.707,2.2-13.451,9.267-25.85,11.914-39.226.385-1.93.789-4.067,2.443-5.3,4.752-3.489,15.511-.534,17.973,4.517C679.69,447.327,678.564,456.776,675.451,461.815Z" transform="translate(-363.379 -263.191)" fill="#6c63ff"/>
  <path id="Trazado_26" data-name="Trazado 26" d="M581.984,376.339c-.423.2-.9.442-1.026.857a1.487,1.487,0,0,0,.447,1.25l4.8,6.27a199.5,199.5,0,0,0,14.936,18.043,102.861,102.861,0,0,0,13.515,11.684,9.808,9.808,0,0,1,3.5,3.506,31.6,31.6,0,0,1,1.483-25.069c1.568-3.091,3.64-5.957,5.27-9.03a1.215,1.215,0,0,0,.255-1.24,1.352,1.352,0,0,0-1.01-.844c-4.153-1.987-8.7-3.188-12.831-5.211a69.256,69.256,0,0,1-9.091-5.692c-2.6-1.815-6.059-5.021-9.267-5.785-3.464-.83-3.327,2.106-4.443,4.557a13.932,13.932,0,0,1-6.53,6.7Z" transform="translate(-330.052 -223.684)" fill="#fbbebe"/>
  <path id="Trazado_27" data-name="Trazado 27" d="M581.984,376.339c-.423.2-.9.442-1.026.857a1.487,1.487,0,0,0,.447,1.25l4.8,6.27a199.5,199.5,0,0,0,14.936,18.043,102.861,102.861,0,0,0,13.515,11.684,9.808,9.808,0,0,1,3.5,3.506,31.6,31.6,0,0,1,1.483-25.069c1.568-3.091,3.64-5.957,5.27-9.03a1.215,1.215,0,0,0,.255-1.24,1.352,1.352,0,0,0-1.01-.844c-4.153-1.987-8.7-3.188-12.831-5.211a69.256,69.256,0,0,1-9.091-5.692c-2.6-1.815-6.059-5.021-9.267-5.785-3.464-.83-3.327,2.106-4.443,4.557a13.932,13.932,0,0,1-6.53,6.7Z" transform="translate(-330.052 -223.684)" opacity="0.1"/>
  <path id="Trazado_28" data-name="Trazado 28" d="M517.07,399.915c-2.172-2.279-5.1-3.784-7.675-5.674a52.28,52.28,0,0,1-9.443-9.737c-5.18-6.46-10.4-14.373-7.822-22.079-2.742-.247-5.109,1.846-6.4,4.1s-1.958,4.826-3.569,6.9c-2.447,3.148-6.61,4.615-10.488,6.054a176.509,176.509,0,0,0-24.626,11.371,35.01,35.01,0,0,0-8.72,6.248c-2.585,2.76-4.206,6.182-6.4,9.207a37.271,37.271,0,0,1-17.992,12.938c-2.376.839-4.923,1.493-7.048,2.826a12.9,12.9,0,0,0-5.37,13.561c1.079,5.008,4.752,9.273,9.167,12.3s9.443,4.818,14.537,6.584q6.406,2.186,12.893,4.169a78.536,78.536,0,0,0,9.737,2.455c6.078,1.038,12.327.782,18.472,1.413,5.617.574,11.135,1.894,16.775,2.261s11.615-.331,16.21-3.383c3.654-2.424,6.088-6.085,8.335-9.715a257.5,257.5,0,0,0,15.607-28.994c1.345-2.945,13.824-19.628,10.716-21.783-15.649-10.85-10.455,6.39-11.947,5.065C520.021,404.229,518.876,401.81,517.07,399.915Z" transform="translate(-235.736 -222.271)" fill="#6c63ff"/>
  <path id="Trazado_29" data-name="Trazado 29" d="M501.252,384.678c-3.36-6.279-5.631-13-7.889-19.686-.623-1.855-1.25-3.859-.58-5.7.808-2.208,3.393-4.093,2.633-6.306-6.045,1.766-13.064,4.535-14.257,10.324-.261,1.263-.214,2.61-.846,3.749-1.231,2.234-4.367,2.711-7.033,3.091-7.756,1.152-15.464,4.058-20.777,9.432a15.609,15.609,0,0,1-2.851,2.548,12.877,12.877,0,0,1-2.561,1.06c-5.2,1.735-10.545,3.9-13.891,7.984-1.725,2.1-2.828,4.623-4.752,6.575-2.6,2.65-6.439,3.974-9.257,6.443a22.946,22.946,0,0,0-4.51,5.833c-4.828,8.107-8.369,17.615-5.807,26.574,1.335,4.685,4.277,8.858,5.86,13.477,2.181,6.293,1.967,13.468,6.059,18.878,2.581,3.4,6.572,5.648,10.659,7.344a61.241,61.241,0,0,0,28.989,4.336q5.509-.6,10.93-1.713c8.616-1.652,17.322-3.449,25.149-7.185,13.349-6.372,22.953-17.76,32.125-28.8a38.527,38.527,0,0,0,4.752-6.624,46.94,46.94,0,0,0,2.78-7.211c2.78-8.218,6.691-16.4,6.325-25a6.9,6.9,0,0,0-.642-3c-.371-.707-.951-1.325-1.278-2.036-.58-1.272-.318-2.742-.727-4.071-1.136-3.709-6.382-4.416-10.536-4.385l-1.331,21.766c-.2,3.268-.58,6.893-3.2,9.083a7.375,7.375,0,0,1-8.193.6c-2.794-1.682-3.189-4.619-3.17-7.432a28.371,28.371,0,0,0-1.492-10.156C509.426,397.444,504.778,391.28,501.252,384.678Z" transform="translate(-239.303 -217.014)" fill="#192534"/>
  <path id="Trazado_30" data-name="Trazado 30" d="M596.364,537.111c16.547,7.794,33.19,15.645,48,26.022,3.422,2.393,6.748,4.928,10.365,7.065,10.365,6.12,23.224,9.1,31.222,17.756A51.875,51.875,0,0,0,691,593.382a22.154,22.154,0,0,0,5.579,3.091,52.446,52.446,0,0,0,20.406,3.89,13.7,13.7,0,0,0,5.384-.883c4.453-2,5.465-7.374,5.917-11.954.152-1.55.185-3.378-1.126-4.341a5.591,5.591,0,0,0-2.533-.777c-14.452-2.12-27.786-8.584-39.862-16.263S661.618,549.5,649.708,541.6c-4.187-2.778-8.473-5.423-12.76-8.068l-13.872-8.558c-7.337-4.526-15.065-9.189-23.828-10.042a3.391,3.391,0,0,0-1.492.093,3.285,3.285,0,0,0-1.573,1.7,125.056,125.056,0,0,1-8.853,13.19c-1.687,2.305-1.877,2.9,1.031,4.133C590.98,535.164,593.755,535.884,596.364,537.111Z" transform="translate(-332.761 -307.423)" fill="#fbbebe"/>
  <path id="Trazado_31" data-name="Trazado 31" d="M675.323,854.765a.664.664,0,1,0-.713-.662.689.689,0,0,0,.713.662Z" transform="translate(-379.204 -496.474)"/>
  <ellipse id="Elipse_9" data-name="Elipse 9" cx="45.455" cy="42.237" rx="45.455" ry="42.237" transform="translate(255.862 97.987)" fill="#fbbebe"/>
  <path id="Trazado_32" data-name="Trazado 32" d="M593.325,300.994c.808-3.793,5.494-5.71,9.642-5.966a24.528,24.528,0,0,1,21.347,10.086,29.435,29.435,0,0,0,1.929-7.348l7.6.525a5.646,5.646,0,0,0,2.528-.212,4.729,4.729,0,0,0,2.091-2.208c3.327-5.771,5.551-12.854,11.8-15.9v7.948a11.3,11.3,0,0,0,8-5.648,29.564,29.564,0,0,0,2.034,6.416c.152.344.366.724.751.813a1.391,1.391,0,0,0,1.026-.349,44.128,44.128,0,0,0,7.846-7.065l9.029,14.546c10.786-25.308-.12-54.133-25.577-67.6a47.842,47.842,0,0,0-6.515-2.884c-5.878-2.058-12.213-2.716-18.482-3.113-8.911-.565-18.315-.543-26.137,3.427-4.206,2.133-7.7,5.277-11.073,8.439-4.562,4.266-9.124,8.774-11.553,14.351-1.678,3.851-2.253,8.024-2.761,12.148-.309,2.495-.594,5.074.171,7.48.532,1.665,1.535,3.162,2.21,4.782,1.122,2.694,1.3,5.635,1.73,8.5a48.854,48.854,0,0,0,6.553,17.99,5.165,5.165,0,0,0,3.046,2.733c1.421.3,3.127-1.157,2.376-2.305" transform="translate(-327.735 -144.299)" fill="#192534"/>
  <path id="Trazado_33" data-name="Trazado 33" d="M593.325,300.994c.808-3.793,5.494-5.71,9.642-5.966a24.528,24.528,0,0,1,21.347,10.086,29.435,29.435,0,0,0,1.929-7.348l7.6.525a5.646,5.646,0,0,0,2.528-.212,4.729,4.729,0,0,0,2.091-2.208c3.327-5.771,5.551-12.854,11.8-15.9v7.948a11.3,11.3,0,0,0,8-5.648,29.564,29.564,0,0,0,2.034,6.416c.152.344.366.724.751.813a1.391,1.391,0,0,0,1.026-.349,44.128,44.128,0,0,0,7.846-7.065l9.029,14.546c10.786-25.308-.12-54.133-25.577-67.6a47.842,47.842,0,0,0-6.515-2.884c-5.878-2.058-12.213-2.716-18.482-3.113-8.911-.565-18.315-.543-26.137,3.427-4.206,2.133-7.7,5.277-11.073,8.439-4.562,4.266-9.124,8.774-11.553,14.351-1.678,3.851-2.253,8.024-2.761,12.148-.309,2.495-.594,5.074.171,7.48.532,1.665,1.535,3.162,2.21,4.782,1.122,2.694,1.3,5.635,1.73,8.5a48.854,48.854,0,0,0,6.553,17.99,5.165,5.165,0,0,0,3.046,2.733c1.421.3,3.127-1.157,2.376-2.305" transform="translate(-327.735 -144.299)" fill="none" stroke="#000" stroke-miterlimit="10" stroke-width="1"/>
  <path id="Trazado_34" data-name="Trazado 34" d="M501.153,459.2c1.834,4.685,6.444,7.865,10.816,10.761l11.405,7.56c3.032,2.009,6.145,4.093,8.117,7.026a5.734,5.734,0,0,0-3.255,7.189c.946,2.729,3.659,4.685,6.615,5.568a27,27,0,0,0,9.177.689c3.54-.181,7.247-.578,10.17-2.446l-6.42-3.674c-1.692-.976-3.635-2.53-3.018-4.283l6.772-.062a3.479,3.479,0,0,0,2.053-.442,3.321,3.321,0,0,0,1-1.643,14.9,14.9,0,0,1,12.651-8.867c1.673-.115,3.6-.049,4.752-1.206a4.86,4.86,0,0,0,1.046-2.9,17.432,17.432,0,0,0,.081-5.9,6.4,6.4,0,0,0-3.564-4.637,17.46,17.46,0,0,0-4.633-.737c-7.171-.883-12.142-6.924-15.991-12.616s-7.979-11.989-14.841-14.109a25.853,25.853,0,0,0-6.6-.941c-4.947-.19-10.042.185-14.547,2.093C504.536,439.182,497.883,450.862,501.153,459.2Z" transform="translate(-287.733 -261.966)" fill="#6c63ff"/>
  <path id="Trazado_35" data-name="Trazado 35" d="M679.052,336.926l-9.029-14.546a43.962,43.962,0,0,1-7.846,7.065,1.375,1.375,0,0,1-1.027.353c-.385-.088-.6-.468-.751-.812a29.6,29.6,0,0,1-2.034-6.421,11.294,11.294,0,0,1-8,5.652v-7.948c-6.245,3.051-8.45,10.134-11.8,15.9a4.791,4.791,0,0,1-2.091,2.208,5.647,5.647,0,0,1-2.528.212l-7.6-.525a29.435,29.435,0,0,1-1.929,7.348,24.527,24.527,0,0,0-21.347-10.086c-4.149.256-8.834,2.173-9.642,5.966l-.4-.415c.765,1.153-.95,2.61-2.376,2.31s-2.333-1.554-3.046-2.733a48.869,48.869,0,0,1-6.525-18c-.432-2.861-.608-5.8-1.73-8.5-.675-1.621-1.678-3.118-2.21-4.782a.74.74,0,0,0-.047-.168c-.043.331-.086.662-.124.994-.309,2.5-.594,5.074.171,7.507.532,1.665,1.535,3.162,2.21,4.778,1.122,2.7,1.3,5.635,1.73,8.5a48.8,48.8,0,0,0,6.525,18c.713,1.179,1.625,2.438,3.046,2.738s3.127-1.157,2.376-2.309l.4.411c.808-3.789,5.494-5.71,9.642-5.961a24.514,24.514,0,0,1,21.347,10.081,29.351,29.351,0,0,0,1.929-7.344l7.6.521a5.605,5.605,0,0,0,2.528-.212,4.729,4.729,0,0,0,2.091-2.208c3.327-5.776,5.551-12.854,11.8-15.9v7.948a11.294,11.294,0,0,0,8-5.652,29.7,29.7,0,0,0,2.034,6.421c.152.34.366.724.751.808a1.355,1.355,0,0,0,1.026-.349,43.955,43.955,0,0,0,7.846-7.065l9.029,14.546a51.572,51.572,0,0,0,3.921-24.287A51.4,51.4,0,0,1,679.052,336.926Z" transform="translate(-327.798 -192.449)" opacity="0.1"/>
</svg>
