<svg xmlns="http://www.w3.org/2000/svg" width="240.836" height="409.988" viewBox="0 0 240.836 409.988">
  <g id="humaaans_standing-17" data-name="humaaans/standing-17" transform="translate(-89.071 -70.506)">
    <g id="humaaan-1" transform="translate(64 54.618)">
      <g id="Head_Front_Chongo" data-name="Head/Front/Chongo" transform="matrix(0.966, -0.259, 0.259, 0.966, 80.946, 29.74)">
        <g id="Head" transform="translate(14.466 25.805)">
          <path id="Trazado_3" data-name="Trazado 3" d="M7.967,32.964c-4.443-5.169-7.451-11.5-6.948-18.6C2.467-6.093,31.193-1.593,36.781,8.73s4.924,36.509-2.3,38.354c-2.88.736-9.015-1.067-15.26-4.8L23.143,69.77H0Z" transform="translate(0 0)" fill="#784931" fill-rule="evenodd"/>
        </g>
        <path id="hair" d="M42.105,23.292a30.458,30.458,0,0,0-9.684-1.061A16.376,16.376,0,0,0,33.6,13.886c-.345-2.75-1.585-5.091-2.732-7.544a10.309,10.309,0,0,0-2.02-3.12,6.919,6.919,0,0,0-3.268-1.74,8.822,8.822,0,0,0-3.765,0c-.547.114-1.039.362-1.576.5s-.816-.2-1.216-.543A6.92,6.92,0,0,0,15.436.056a9.331,9.331,0,0,0-4.083.485,8,8,0,0,0-3.4,2.16A5.648,5.648,0,0,0,6.933,4.25c-.1.235-.115.374-.352.461-.219.08-.475.082-.7.158A8.792,8.792,0,0,0,.81,9.423a14.324,14.324,0,0,0-.8,5.933c.077,2.473,2.33,8.927,4.438,11.281a14.19,14.19,0,0,0,7.315,4.095A20.684,20.684,0,0,0,7.943,37.8a34.3,34.3,0,0,0-1.75,8.581,27.762,27.762,0,0,0,.434,8.46,9.169,9.169,0,0,0,4.136,5.969,19.839,19.839,0,0,0,3.184,1.482,21.1,21.1,0,0,0,3.28,1.042c2.132.437,4.588.362,6.23-1.32A11.606,11.606,0,0,0,25.132,59.9c.155-.266.249-.441.06-.7a5.038,5.038,0,0,0-.882-.795,8.215,8.215,0,0,1-2.938-5.454c-.262-2.239.345-5.128,2.541-6.105,2.711-1.206,5.7.178,8.105,1.469a13.149,13.149,0,0,1,6.423-8.45c3.647-1.818,7.831-2.03,11.579-3.59a6.919,6.919,0,0,0,2.69-1.7,3.452,3.452,0,0,0,.773-1.253,2.016,2.016,0,0,0-.536-1.574C51.345,29.268,45.268,24.247,42.105,23.292Z" fill="#191847" fill-rule="evenodd"/>
      </g>
      <g id="Bottom_Standing_Skinny-Jeans" data-name="Bottom/Standing/Skinny-Jeans" transform="translate(70.753 196.154)">
        <path id="Leg" d="M138.653,0l34.96,122.209,25.507,90.074h18.6L190.619,0Z" transform="translate(-84.653 0)" fill="#191847" fill-rule="evenodd"/>
        <path id="Leg-2" data-name="Leg" d="M122.855,0c-.808,62.988-3.566,97.343-4.415,103.066s-13.686,42.128-38.512,109.217H99.2q47.408-96.54,52.929-109.217C155.809,94.614,167.168,60.259,184.276,0Z" transform="translate(-78.205)" fill="#2f3676" fill-rule="evenodd"/>
        <g id="Accessories_Shoe_Flat-Pointy" data-name="Accessories/Shoe/Flat-Pointy" transform="translate(0 209.472)">
          <path id="Shoe" d="M0,40.831l.964-20.25h20.25q14.4,10.125,37.607,16.393v3.857H22.179L9.643,38.9v1.929Z" transform="translate(0 -20.581)" fill="#191847" fill-rule="evenodd"/>
        </g>
        <g id="Accessories_Shoe_Flat-Pointy-2" data-name="Accessories/Shoe/Flat-Pointy" transform="translate(111.857 209.472)">
          <path id="Shoe-2" data-name="Shoe" d="M0,40.831l.964-20.25h20.25q14.4,10.125,37.607,16.393v3.857H22.179L9.643,38.9v1.929Z" transform="translate(0 -20.581)" fill="#191847" fill-rule="evenodd"/>
        </g>
      </g>
      <g id="Body_Lab-Coat" data-name="Body/Lab-Coat" transform="translate(12.065 117.584) rotate(-10)">
        <path id="Skin" d="M179.158,10.626l29.108,24.556a82.966,82.966,0,0,1,20.272,9.791c1.235,1.288,2.659,3.821-2.782,3.021s-11.2-1.4-12.084.408,2.269,4.255.567,6.653q-1.7,2.4-13.533-13.565L171.2,26.839ZM47.349,0,64.428,2.468q-27.5,59.37-29.486,62.8c-2.979,5.14.525,14.093,1.894,18.832-6.922,1.989-4.711-8.653-13.464-6C15.384,80.521,8.792,86.013.88,79.482c-.973-.8-1.792-3.428,1.3-4.958,7.7-3.811,19.013-10.786,20.771-13.356Q26.546,55.911,47.349,0Z" transform="translate(0 74.896)" fill="#b28b67" fill-rule="evenodd"/>
        <path id="Coat-Back" d="M0,4.392,10.239,0C27.65,34.3,51.988,66.828,90.165,92.763l-7.488,15.9C49.752,93.045,18.858,81.378,4.418,54.884-.429,45.992.638,15.475,0,4.392Z" transform="translate(119.115 1.239) rotate(5)" fill="#c5cfd6" fill-rule="evenodd"/>
        <path id="Shirt" d="M0,103.915q45.473,4.8,71.585,0c2.156-.4,2.5-3.99,1.5-6.428C57.506,59.512,46.826,26.377,46.826,0q-4.288,2.151-15,.645C12.618,27.826,3.792,59.014,0,103.915Z" transform="translate(82.384 2.131)" fill="#323337" fill-rule="evenodd"/>
        <path id="Coat-Front" d="M86.069.5h8c1.863,10.9,7.74,158.575,25.883,206.881H21.786C23.914,163.126,40.7,109.968,57.709,65.485q-22.558,20.54-39.321,69.608L0,130.4Q20.508,42.461,84.33,1.13q.138-.318.275-.632h.708L86.1,0Z" transform="translate(23.363 0)" fill="#dde3e9" fill-rule="evenodd"/>
      </g>
    </g>
  </g>
</svg>
