<svg xmlns="http://www.w3.org/2000/svg" width="348.981" height="397.648" viewBox="0 0 348.981 397.648">
  <g id="humaaans_sitting-8" data-name="humaaans/sitting-8" transform="translate(-9 -48)">
    <g id="A-Human_Sitting" data-name="A-Human/Sitting" transform="translate(357.981 445.648) rotate(180)">
      <g id="Head_Front_Short-2" data-name="Head/Front/Short-2" transform="translate(93.774 302.687)">
        <g id="Head" transform="translate(4.748 0)">
          <path id="Trazado_4" data-name="Trazado 4" d="M9.807,45.712C4.338,52.132.636,60,1.254,68.816,3.037,94.219,38.4,88.631,45.276,75.81s6.061-45.343-2.829-47.634c-3.545-.914-11.1,1.325-18.784,5.958L28.488,0H0Z" fill="#915b3c" fill-rule="evenodd"/>
        </g>
        <path id="Hair" d="M12.366,0C8.791,15.907-1.4,26.751.16,33.86Q1.716,40.97,8.453,42.7q3.484,14.1,22.475,11.991C49.919,52.589,61.51,44.7,56.5,27.348c-4.6,0-10.156,1.664-17.837-1.187q-3.656-1.357-5.229-8.416H29.967Q24.914,26.122,20,23.9T17.769,13.115L16.059,0Z" transform="translate(0 39.993)" fill="#191847" fill-rule="evenodd"/>
      </g>
      <g id="Bottom_Sitting_Baggy-Pants" data-name="Bottom/Sitting/Baggy-Pants" transform="translate(0 0)">
        <g id="Objects_Seat_Cube-2" data-name="Objects/Seat/Cube-2" transform="translate(0 7.122)">
          <path id="Seat" d="M18.992,147.189H155.5A18.992,18.992,0,0,0,174.49,128.2V18.992A18.991,18.991,0,0,0,155.5,0H18.992A18.992,18.992,0,0,0,0,18.992V128.2A18.992,18.992,0,0,0,18.992,147.189Zm18.992-33.236a4.748,4.748,0,0,1-4.748-4.748V37.984a4.748,4.748,0,0,1,4.748-4.748h98.522a4.748,4.748,0,0,1,4.748,4.748V109.2a4.748,4.748,0,0,1-4.748,4.748Z" transform="translate(0 0)" fill="#c5cfd6" fill-rule="evenodd"/>
        </g>
        <path id="LegLower" d="M78.531,0q-35.1,42.868-47.505,63.56C16.871,87.18,5.286,108.2,1.63,116.227c-8.719,19.146,20.071,28.111,26.587,19.18Q43.009,115.133,91.4,7.814Z" transform="translate(213.661 13.057)" fill="#b28b67" fill-rule="evenodd"/>
        <path id="LegLower-2" data-name="LegLower" d="M44.819,0,1.264,109.636c-9.316,19.986,35.671,33.123,42.516,23.822C59.323,112.342,96.266,29.041,100.9,22.75Z" transform="translate(199.417 21.366)" fill="#2f3676" fill-rule="evenodd"/>
        <g id="Lower-Leg" transform="matrix(0.777, -0.629, 0.629, 0.777, 122.588, 39.781)">
          <path id="LegLower-3" data-name="LegLower" d="M2.142,6.33C.947,21.288-1.273,73.066.948,97.032c.638,6.887,1.311,13.545,1.988,19.792,2.014,18.566,36.44,17.979,33.706.34C29.835,73.236,17.851,11.674,16.992,6.355,15.788-1.1,2.893-3.07,2.142,6.33Z" transform="translate(0 0)" fill="#915b3c" fill-rule="evenodd"/>
        </g>
        <g id="Accessories_Shoe_Flat-Sneaker" data-name="Accessories/Shoe/Flat-Sneaker" transform="matrix(0.866, -0.5, 0.5, 0.866, 119.831, 34.933)">
          <path id="shoe" d="M1.992,17.328Q0,12.011,0,9.371A59.56,59.56,0,0,1,1.07,0H68.02q2.61,8.628-3.013,9.315t-9.342,1.242L24.547,24.43a1.187,1.187,0,0,1-1.567-.6l-.013-.031-2-4.852q-5.2-2.429-8.459-2.429-2.644,0-7.3,2.136h0a2.374,2.374,0,0,1-3.147-1.169Q2.022,17.407,1.992,17.328Z" transform="translate(0 0)" fill="#e4e4e4" fill-rule="evenodd"/>
        </g>
        <g id="Accessories_Shoe_Flat-Sneaker-2" data-name="Accessories/Shoe/Flat-Sneaker" transform="translate(280.134 0)">
          <path id="shoe-2" data-name="shoe" d="M1.992,17.328Q0,12.011,0,9.371A59.56,59.56,0,0,1,1.07,0H68.019q2.61,8.627-3.013,9.315t-9.342,1.242L24.547,24.43a1.187,1.187,0,0,1-1.567-.6l-.013-.031-2-4.852q-5.2-2.429-8.459-2.429-2.644,0-7.3,2.136h0a2.374,2.374,0,0,1-3.147-1.169Q2.022,17.407,1.992,17.328Z" transform="translate(0)" fill="#e4e4e4" fill-rule="evenodd"/>
        </g>
        <path id="Leg-and-Butt" d="M113.6,93.136q-54.3,8.846-72.741,12.1C5.81,111.413-4.409,130.271,1.632,171.417H66.2q12.818-3.7,107.109-45.782c11.31-5.614,9.2-22.168,7.136-27.622q-.126-.334-57.2-98.012L70.427,33.649,113.7,89.171Q115.408,92.623,113.6,93.136Z" transform="translate(71.414 32.39)" fill="#5c63ab" fill-rule="evenodd"/>
      </g>
      <g id="Body_Hoodie" data-name="Body/Hoodie" transform="translate(3.754 113.767)">
        <path id="Skin" d="M185.907,105.578l37.863-27.8q15.4-4.157,25.74-10.344c1.627-1.483,3.594-4.486-3.156-3.967s-13.873.762-14.8-1.541,3.154-5.055,1.271-8.162q-1.884-3.107-17.79,15.578L177.538,84.888Zm-145.377-.96,24.805-.1q-22.974-74.165-24.805-78.7C37.784,19.012,43.6,8.644,46.082,3.074c-8.1-3.623-7.233,9.793-17.445,5.042C19.316,3.779,12.225-4.078,1.456,2.567c-1.324.817-2.775,3.892.731,6.3,8.734,5.988,21.32,16.47,23.02,19.92Q28.685,35.839,40.531,104.619Z" transform="translate(0 0)" fill="#915b3c" fill-rule="evenodd"/>
        <path id="Coat-Back" d="M0,132.542l10.072,2.648c40.806-29.454,61.9-91.052,111.317-120.336L111.41,0C29.861,2.931,3.147,77.979,0,132.542Z" transform="translate(99.471 76.667) rotate(-5)" fill="#e87613" fill-rule="evenodd"/>
        <path id="Shirt" d="M0,0H90.819c4.151,0,3.369,5.992,2.768,9.017-6.923,34.9-33.951,72.517-33.951,122.195l-26.2,4.108C11.772,100.47,4.279,57.565,0,0Z" transform="translate(66.279 79.715)" fill="#dde3e9" fill-rule="evenodd"/>
        <path id="Coat-Front" d="M42.433,150.919q-5.707,1.641-9.039,7.652c-9.575,17.277-6.117,26.789,4.116,29.916s19.357-3.314,35.661-3.314a16.42,16.42,0,0,0,2.437-.167l8.2-.468Q119.1,64.923,103.276,24.927H31.794A243.8,243.8,0,0,0,19.636,0H.158Q-2.591,88.906,42.433,150.919Z" transform="translate(24.576 29.861)" fill="#ff9b21" fill-rule="evenodd"/>
        <path id="Shade" d="M15.566,40.954Q18.938,12.74,26.528,0H0Q7.41,17.28,15.566,40.954Z" transform="translate(56.37 54.788)" fill="rgba(0,0,0,0.1)" fill-rule="evenodd"/>
      </g>
    </g>
  </g>
</svg>
