<?xml version="1.0" encoding="UTF-8"?>
<svg xmlns="http://www.w3.org/2000/svg" xmlns:xlink="http://www.w3.org/1999/xlink" width="375pt" height="374.999991pt" viewBox="0 0 375 374.999991" version="1.2">
<defs>
<clipPath id="clip1">
  <path d="M 44.773438 196 L 154 196 L 154 304.40625 L 44.773438 304.40625 Z M 44.773438 196 "/>
</clipPath>
<clipPath id="clip2">
  <path d="M 44.773438 178 L 196 178 L 196 197 L 44.773438 197 Z M 44.773438 178 "/>
</clipPath>
<clipPath id="clip3">
  <path d="M 153 178 L 196 178 L 196 304.40625 L 153 304.40625 Z M 153 178 "/>
</clipPath>
<clipPath id="clip4">
  <path d="M 180 176 L 330.523438 176 L 330.523438 194 L 180 194 Z M 180 176 "/>
</clipPath>
<clipPath id="clip5">
  <path d="M 288 176 L 330.523438 176 L 330.523438 302 L 288 302 Z M 288 176 "/>
</clipPath>
<clipPath id="clip6">
  <path d="M 108 70.464844 L 260 70.464844 L 260 89 L 108 89 Z M 108 70.464844 "/>
</clipPath>
<clipPath id="clip7">
  <path d="M 217 70.464844 L 260 70.464844 L 260 197 L 217 197 Z M 217 70.464844 "/>
</clipPath>
</defs>
<g id="surface1">
<g clip-path="url(#clip1)" clip-rule="nonzero">
<path style=" stroke:none;fill-rule:nonzero;fill:rgb(50.19989%,80.389404%,76.469421%);fill-opacity:1;" d="M 44.773438 196.066406 L 153.332031 196.066406 L 153.332031 304.335938 L 44.773438 304.335938 L 44.773438 196.066406 "/>
</g>
<g clip-path="url(#clip2)" clip-rule="nonzero">
<path style=" stroke:none;fill-rule:nonzero;fill:rgb(45.098877%,78.039551%,74.119568%);fill-opacity:1;" d="M 44.773438 196.066406 L 86.683594 178.519531 L 195.238281 178.519531 L 153.332031 196.066406 L 44.773438 196.066406 "/>
</g>
<g clip-path="url(#clip3)" clip-rule="nonzero">
<path style=" stroke:none;fill-rule:nonzero;fill:rgb(42.349243%,76.858521%,73.329163%);fill-opacity:1;" d="M 153.332031 304.335938 L 195.238281 286.792969 L 195.238281 178.519531 L 153.332031 196.066406 L 153.332031 304.335938 "/>
</g>
<path style=" stroke:none;fill-rule:nonzero;fill:rgb(100%,100%,100%);fill-opacity:1;" d="M 109.566406 255.765625 L 98.335938 230.515625 L 87.898438 255.765625 Z M 94.90625 215.179688 L 101.984375 215.179688 L 133.238281 285.222656 L 123.007812 285.222656 L 113.710938 264.609375 L 84.035156 264.609375 L 75.238281 285.222656 L 64.941406 285.222656 L 94.90625 215.179688 "/>
<path style=" stroke:none;fill-rule:nonzero;fill:rgb(65.489197%,83.918762%,20.388794%);fill-opacity:1;" d="M 180.367188 193.640625 L 288.921875 193.640625 L 288.921875 301.914062 L 180.367188 301.914062 L 180.367188 193.640625 "/>
<g clip-path="url(#clip4)" clip-rule="nonzero">
<path style=" stroke:none;fill-rule:nonzero;fill:rgb(59.999084%,81.959534%,12.548828%);fill-opacity:1;" d="M 180.367188 193.640625 L 222.269531 176.097656 L 330.828125 176.097656 L 288.921875 193.640625 L 180.367188 193.640625 "/>
</g>
<g clip-path="url(#clip5)" clip-rule="nonzero">
<path style=" stroke:none;fill-rule:nonzero;fill:rgb(58.81958%,79.60968%,13.328552%);fill-opacity:1;" d="M 288.921875 301.914062 L 330.828125 284.367188 L 330.828125 176.097656 L 288.921875 193.640625 L 288.921875 301.914062 "/>
</g>
<path style=" stroke:none;fill-rule:nonzero;fill:rgb(100%,100%,100%);fill-opacity:1;" d="M 266.035156 266.535156 L 266.035156 277.519531 C 258.671875 281.511719 250.234375 283.511719 240.648438 283.511719 C 232.855469 283.511719 226.203125 281.941406 220.769531 278.804688 C 215.335938 275.664062 211.042969 271.386719 207.898438 265.894531 C 204.75 260.402344 203.175781 254.480469 203.175781 248.0625 C 203.175781 237.933594 206.824219 229.375 214.046875 222.457031 C 221.339844 215.539062 230.28125 212.117188 240.863281 212.117188 C 248.230469 212.117188 256.3125 214.039062 265.320312 217.820312 L 265.320312 228.519531 C 257.171875 223.882812 249.160156 221.53125 241.363281 221.53125 C 233.355469 221.53125 226.703125 224.027344 221.414062 229.089844 C 216.121094 234.082031 213.546875 240.429688 213.546875 247.992188 C 213.546875 255.625 216.121094 261.898438 221.339844 266.820312 C 226.5625 271.742188 233.214844 274.167969 241.296875 274.167969 C 249.734375 274.3125 258.027344 271.742188 266.035156 266.535156 "/>
<path style=" stroke:none;fill-rule:nonzero;fill:rgb(95.289612%,50.979614%,62.748718%);fill-opacity:1;" d="M 108.851562 88.078125 L 217.40625 88.078125 L 217.40625 196.351562 L 108.851562 196.351562 L 108.851562 88.078125 "/>
<g clip-path="url(#clip6)" clip-rule="nonzero">
<path style=" stroke:none;fill-rule:nonzero;fill:rgb(94.898987%,45.098877%,58.039856%);fill-opacity:1;" d="M 108.851562 88.078125 L 150.757812 70.535156 L 259.316406 70.535156 L 217.40625 88.078125 L 108.851562 88.078125 "/>
</g>
<g clip-path="url(#clip7)" clip-rule="nonzero">
<path style=" stroke:none;fill-rule:nonzero;fill:rgb(94.119263%,39.99939%,53.729248%);fill-opacity:1;" d="M 217.40625 196.351562 L 259.316406 178.804688 L 259.316406 70.535156 L 217.40625 88.078125 L 217.40625 196.351562 "/>
</g>
<path style=" stroke:none;fill-rule:nonzero;fill:rgb(100%,100%,100%);fill-opacity:1;" d="M 158.554688 146.066406 L 149.183594 146.066406 L 149.183594 168.179688 L 159.054688 168.179688 C 164.488281 168.179688 168.207031 167.75 170.140625 166.964844 C 172.070312 166.109375 173.640625 164.753906 174.855469 162.972656 C 176.074219 161.1875 176.644531 159.261719 176.644531 157.195312 C 176.644531 155.054688 176.003906 153.128906 174.714844 151.34375 C 173.5 149.5625 171.710938 148.28125 169.421875 147.421875 C 167.207031 146.496094 163.558594 146.066406 158.554688 146.066406 Z M 157.839844 116.253906 L 149.257812 116.253906 L 149.257812 137.222656 L 155.90625 137.222656 C 161.269531 137.222656 164.992188 136.222656 167.277344 134.15625 C 169.566406 132.160156 170.710938 129.519531 170.710938 126.308594 C 170.640625 119.535156 166.347656 116.253906 157.839844 116.253906 Z M 162.84375 177.019531 L 139.171875 177.019531 L 139.171875 107.335938 L 157.480469 107.335938 C 163.273438 107.335938 167.777344 108.121094 170.996094 109.691406 C 174.214844 111.191406 176.71875 113.328125 178.363281 116.039062 C 180.078125 118.75 180.9375 121.890625 180.9375 125.382812 C 180.9375 132.230469 177.359375 137.152344 170.28125 140.078125 C 175.359375 141.074219 179.4375 143.140625 182.4375 146.351562 C 185.441406 149.5625 187.015625 153.414062 187.015625 157.910156 C 187.015625 161.472656 186.085938 164.613281 184.300781 167.464844 C 182.4375 170.246094 179.792969 172.53125 176.21875 174.3125 C 172.640625 176.097656 168.207031 177.019531 162.84375 177.019531 "/>
</g>
</svg>
